<?xml version="1.0" encoding="UTF-8"?>
<svg id="Camada_1" data-name="Camada 1" xmlns="http://www.w3.org/2000/svg" viewBox="0 0 800 800">
  <defs>
    <style>
      .cls-1 {
        fill: #fff;
      }
    </style>
  </defs>
  <path class="cls-1" d="M299.35,392.22l33.52,46.58c-5.69.92-10.42.84-16.32.62l-28.55-40.7c-1.1-1.57-5.83-1.42-7.83-.64l-.19,41.45-13.44-.18.11-88.38,13.52-.04-.09,38.28c.74,1.38,4.93,1.36,5.86.21l31.08-38.61,16.58.27-34.26,41.14Z"/>
  <path class="cls-1" d="M635.07,440.62c-9.88-1.6-16.13-8.4-16.75-17.14-1.53-21.69,24.9-22.9,42.22-22.36,1.38-4.57.38-10.98-3.84-14.49-3.18-2.64-8.47-3.17-12.54-2.7-6.48.74-10.55,5.06-11.6,11.91l-11.98-1.5c.02-8.64,5.71-15.73,13.99-18.75,7.67-2.8,16.2-2.92,24.07-.52,8.89,2.72,14.96,10.48,15.06,19.89l.27,25.12c.07,6.69.58,12.63,1.41,19.29l-11.96.31-1.91-10.28c-5.54,9.31-15.66,12.98-26.43,11.23ZM641.26,430.74c5.86.51,11.71-1.37,15.17-4.97,3.89-4.04,5.35-9.38,4.43-15.63-9,.06-30.59-.91-29.54,12.08.39,4.86,4.12,8.02,9.93,8.52Z"/>
  <path class="cls-1" d="M428.94,440.5c-10.25-1.86-16.49-9.46-16.17-19.49.64-19.87,26.88-20.28,42.44-19.83,1.1-4.61.13-11.04-4.02-14.39-4.83-3.91-12.24-3.89-17.76-1.28-4.06,1.93-5.51,6.06-6.74,10.38l-11.67-1.49c-.08-7.77,4.43-14.44,11.73-17.84,8.07-3.76,17.24-4.01,25.9-1.63,9.14,2.51,15.5,10.33,15.61,20.2l.35,31.49c.05,4.39.66,7.93,1.37,12.87h-12.19s-1.63-10.16-1.63-10.16c-5.82,9.49-16.1,13.2-27.23,11.18ZM435.9,430.84c6.02.38,11.62-1.5,15.14-5.11,3.86-3.97,5.27-9.24,4.49-15.56-8.69-.09-31.14-.73-29.76,12.15.51,4.78,4.29,8.15,10.14,8.52Z"/>
  <path class="cls-1" d="M601.08,375.12c4.93-.34,8.82-.28,13.96.17l-24.18,63.9-14.12.28-24.27-64.43,14.09-.09,17.47,51.92,17.04-51.74Z"/>
  <path class="cls-1" d="M518.55,428.6l.73,10.59c-6.54,1.22-12.54,1.76-18.84.45-7.43-1.54-12.72-8.23-12.76-15.94l-.24-38.18-11.03.06.07-10.64,10.95-.15,2.87-16.64h10.2s.14,16.74.14,16.74l18.4.11-.03,10.56h-18.44s0,35.51,0,35.51c0,4.27,2.84,8,7.32,8.43,3.12.3,5.6-.18,10.65-.88Z"/>
  <path class="cls-1" d="M354.66,439.42l-13.31-.17.03-64.08,11.62-.25,1.39,11.3c4.39-9.2,12.66-14.07,23.06-11.99l-.38,12.07c-5.92-.49-11.45-.2-15.78,3.32-2.89,2.35-6.24,7.82-6.29,12.68l-.33,37.11Z"/>
  <rect class="cls-1" x="387.32" y="374.88" width="13.15" height="64.66"/>
  <rect class="cls-1" x="530.78" y="374.9" width="13.19" height="64.69"/>
  <circle class="cls-1" cx="393.81" cy="356.84" r="8.41"/>
  <circle class="cls-1" cx="537.25" cy="356.87" r="8.37"/>
  <path class="cls-1" d="M174.22,439l17.17,26.42-47.12.32-15.26-16.81-.07,16.66-40.96-.09-.08-40.23c11.05-.14,21.68,3.57,29.49,11.39l11.39,11.39.04-54.08c0-9.48,9.06-12.97,5.54-27.04l-5.53,4.77-.19-29.25-39.66,40.24c14.39-.63,26.88-4.79,40-10.84l-40.98,46.68-.17-96.28,40.93.02.12,19.54c5.12,5.01,7.64,10.24,9.46,18.17l31.25-37.8,58.13.2-76.68,76.93c11.02,10.94,26.66,11.17,38.06,1.37l13.4,27.59c4.32-2.83,7.83-5.96,10.78-9.73l-26.93-49.8,41.58-.02c2.66,18.49-2.38,36.52-14.2,50.01l25.26,46.34-18.51.47-17.9-36.72c-8.42,5.32-16.7,8.57-28.35,10.17ZM173.22,438.33l-24.34-36.81-19.39,19.48c11.67,11.78,26.84,18.23,43.73,17.33Z"/>
</svg>